<svg width="847" height="1473" viewBox="0 0 847 1473" class="keymap" xmlns="http://www.w3.org/2000/svg" xmlns:xlink="http://www.w3.org/1999/xlink">
<style>/* font and background color specifications */
svg {
    font-family: SFMono-Regular,Consolas,Liberation Mono,Menlo,monospace;
    font-size: 14px;
    font-kerning: normal;
    text-rendering: optimizeLegibility;
    fill: #24292e;
}

/* default key styling */
rect {
    fill: #f6f8fa;
    stroke: #c9cccf;
    stroke-width: 1;
}

/* color accent for combo boxes */
rect.combo {
    fill: #cdf;
}

/* color accent for held keys */
rect.held, rect.combo.held {
    fill: #fdd;
}

/* color accent for ghost (optional) keys */
rect.ghost, rect.combo.ghost {
    fill: #ddd;
}

text {
    text-anchor: middle;
    dominant-baseline: middle;
}

/* styling for layer labels */
text.label {
    font-weight: bold;
    text-anchor: start;
    stroke: white;
    stroke-width: 2;
    paint-order: stroke;
}

/* styling for combo tap, and key hold/shifted label text */
text.combo, text.hold, text.shifted {
    font-size: 11px;
}

text.hold {
    text-anchor: middle;
    dominant-baseline: auto;
}

text.shifted {
    text-anchor: middle;
    dominant-baseline: hanging;
}

/* styling for hold/shifted label text in combo box */
text.combo.hold, text.combo.shifted {
    font-size: 8px;
}

/* styling for combo dendrons */
path {
    stroke-width: 1;
    stroke: gray;
    fill: none;
}
</style>
<g transform="translate(30, 0)" class="layer-Base">
<text x="0" y="28" class="label">Base:</text>
<g transform="translate(0, 56)">
<g transform="translate(30, 87)" class="key keypos-0">
<rect rx="6" ry="6" x="-28" y="-26" width="55" height="52" class="key"/>
<text x="0" y="0" class="key tap">Q</text>
</g>
<g transform="translate(89, 48)" class="key keypos-1">
<rect rx="6" ry="6" x="-28" y="-26" width="55" height="52" class="key"/>
<text x="0" y="0" class="key tap">W</text>
<text x="0" y="-24" class="key shifted">LS(TAB)</text>
</g>
<g transform="translate(148, 28)" class="key keypos-2">
<rect rx="6" ry="6" x="-28" y="-26" width="55" height="52" class="key"/>
<text x="0" y="0" class="key tap">E</text>
</g>
<g transform="translate(208, 50)" class="key keypos-3">
<rect rx="6" ry="6" x="-28" y="-26" width="55" height="52" class="key"/>
<text x="0" y="0" class="key tap">R</text>
<text x="0" y="-24" class="key shifted">↹</text>
</g>
<g transform="translate(267, 58)" class="key keypos-4">
<rect rx="6" ry="6" x="-28" y="-26" width="55" height="52" class="key"/>
<text x="0" y="0" class="key tap">T</text>
</g>
<g transform="translate(520, 58)" class="key keypos-5">
<rect rx="6" ry="6" x="-28" y="-26" width="55" height="52" class="key"/>
<text x="0" y="0" class="key tap">Y</text>
</g>
<g transform="translate(580, 50)" class="key keypos-6">
<rect rx="6" ry="6" x="-28" y="-26" width="55" height="52" class="key"/>
<text x="0" y="0" class="key tap">U</text>
</g>
<g transform="translate(639, 28)" class="key keypos-7">
<rect rx="6" ry="6" x="-28" y="-26" width="55" height="52" class="key"/>
<text x="0" y="0" class="key tap">I</text>
</g>
<g transform="translate(698, 48)" class="key keypos-8">
<rect rx="6" ry="6" x="-28" y="-26" width="55" height="52" class="key"/>
<text x="0" y="0" class="key tap">O</text>
</g>
<g transform="translate(758, 87)" class="key keypos-9">
<rect rx="6" ry="6" x="-28" y="-26" width="55" height="52" class="key"/>
<text x="0" y="0" class="key tap">P</text>
</g>
<g transform="translate(30, 143)" class="key keypos-10">
<rect rx="6" ry="6" x="-28" y="-26" width="55" height="52" class="key"/>
<text x="0" y="0" class="key tap">A</text>
</g>
<g transform="translate(89, 104)" class="key keypos-11">
<rect rx="6" ry="6" x="-28" y="-26" width="55" height="52" class="key"/>
<text x="0" y="0" class="key tap">S</text>
<text x="0" y="24" class="key hold">Symbol</text>
</g>
<g transform="translate(148, 84)" class="key keypos-12">
<rect rx="6" ry="6" x="-28" y="-26" width="55" height="52" class="key"/>
<text x="0" y="0" class="key tap">D</text>
<text x="0" y="24" class="key hold">Numeric</text>
</g>
<g transform="translate(208, 106)" class="key keypos-13">
<rect rx="6" ry="6" x="-28" y="-26" width="55" height="52" class="key"/>
<text x="0" y="0" class="key tap">F</text>
<text x="0" y="24" class="key hold"><tspan style="font-size: 70%">Navigation</tspan></text>
</g>
<g transform="translate(267, 114)" class="key keypos-14">
<rect rx="6" ry="6" x="-28" y="-26" width="55" height="52" class="key"/>
<text x="0" y="0" class="key tap">G</text>
</g>
<g transform="translate(520, 114)" class="key keypos-15">
<rect rx="6" ry="6" x="-28" y="-26" width="55" height="52" class="key"/>
<text x="0" y="0" class="key tap">H</text>
</g>
<g transform="translate(580, 106)" class="key keypos-16">
<rect rx="6" ry="6" x="-28" y="-26" width="55" height="52" class="key"/>
<text x="0" y="0" class="key tap">J</text>
</g>
<g transform="translate(639, 84)" class="key keypos-17">
<rect rx="6" ry="6" x="-28" y="-26" width="55" height="52" class="key"/>
<text x="0" y="0" class="key tap">K</text>
<text x="0" y="24" class="key hold">Numeric</text>
</g>
<g transform="translate(698, 104)" class="key keypos-18">
<rect rx="6" ry="6" x="-28" y="-26" width="55" height="52" class="key"/>
<text x="0" y="0" class="key tap">L</text>
<text x="0" y="24" class="key hold">Symbol</text>
</g>
<g transform="translate(758, 143)" class="key keypos-19">
<rect rx="6" ry="6" x="-28" y="-26" width="55" height="52" class="key"/>
<text x="0" y="0" class="key tap">;</text>
<text x="0" y="-24" class="key shifted">:</text>
</g>
<g transform="translate(30, 199)" class="key keypos-20">
<rect rx="6" ry="6" x="-28" y="-26" width="55" height="52" class="key"/>
<text x="0" y="0" class="key tap">Z</text>
</g>
<g transform="translate(89, 160)" class="key keypos-21">
<rect rx="6" ry="6" x="-28" y="-26" width="55" height="52" class="key"/>
<text x="0" y="0" class="key tap">X</text>
<text x="0" y="24" class="key hold">⌃</text>
</g>
<g transform="translate(148, 140)" class="key keypos-22">
<rect rx="6" ry="6" x="-28" y="-26" width="55" height="52" class="key"/>
<text x="0" y="0" class="key tap">C</text>
<text x="0" y="24" class="key hold">⎇</text>
</g>
<g transform="translate(208, 162)" class="key keypos-23">
<rect rx="6" ry="6" x="-28" y="-26" width="55" height="52" class="key"/>
<text x="0" y="0" class="key tap">V</text>
<text x="0" y="24" class="key hold">⌘</text>
</g>
<g transform="translate(267, 170)" class="key keypos-24">
<rect rx="6" ry="6" x="-28" y="-26" width="55" height="52" class="key"/>
<text x="0" y="0" class="key tap">B</text>
</g>
<g transform="translate(520, 170)" class="key keypos-25">
<rect rx="6" ry="6" x="-28" y="-26" width="55" height="52" class="key"/>
<text x="0" y="0" class="key tap">N</text>
<text x="0" y="24" class="key hold">⌘</text>
</g>
<g transform="translate(580, 162)" class="key keypos-26">
<rect rx="6" ry="6" x="-28" y="-26" width="55" height="52" class="key"/>
<text x="0" y="0" class="key tap">M</text>
<text x="0" y="24" class="key hold">⌘</text>
</g>
<g transform="translate(639, 140)" class="key keypos-27">
<rect rx="6" ry="6" x="-28" y="-26" width="55" height="52" class="key"/>
<text x="0" y="0" class="key tap">,</text>
<text x="0" y="24" class="key hold">⎇</text>
<text x="0" y="-24" class="key shifted">&lt;</text>
</g>
<g transform="translate(698, 160)" class="key keypos-28">
<rect rx="6" ry="6" x="-28" y="-26" width="55" height="52" class="key"/>
<text x="0" y="0" class="key tap">.</text>
<text x="0" y="-24" class="key shifted">:</text>
</g>
<g transform="translate(758, 199)" class="key keypos-29">
<rect rx="6" ry="6" x="-28" y="-26" width="55" height="52" class="key"/>
<text x="0" y="0" class="key tap">?</text>
<text x="0" y="-24" class="key shifted">!</text>
</g>
<g transform="translate(188, 228)" class="key trans keypos-30">
<rect rx="6" ry="6" x="-28" y="-26" width="55" height="52" class="key trans"/>
<text x="0" y="0" class="key trans tap">▽</text>
</g>
<g transform="translate(254, 236) rotate(15.0)" class="key keypos-31">
<rect rx="6" ry="6" x="-28" y="-26" width="55" height="52" class="key"/>
<text x="0" y="0" class="key tap">Edit</text>
<text x="0" y="24" class="key hold">sticky</text>
</g>
<g transform="translate(321, 246) rotate(30.0)" class="key keypos-32">
<rect rx="6" ry="6" x="-26" y="-42" width="52" height="85" class="key"/>
<text x="0" y="0" class="key tap">SPACE</text>
<text x="0" y="40" class="key hold">System</text>
</g>
<g transform="translate(463, 246) rotate(-30.0)" class="key keypos-33">
<rect rx="6" ry="6" x="-26" y="-42" width="52" height="85" class="key"/>
<text x="0" y="0" class="key tap">⇧</text>
<text x="0" y="40" class="key hold">sticky</text>
<text x="0" y="-40" class="key shifted">⇪</text>
</g>
<g transform="translate(533, 235) rotate(-15.0)" class="key keypos-34">
<rect rx="6" ry="6" x="-28" y="-26" width="55" height="52" class="key"/>
<text x="0" y="0" class="key tap"><tspan style="font-size: 88%">Function</tspan></text>
<text x="0" y="24" class="key hold">sticky</text>
</g>
<g transform="translate(599, 228)" class="key keypos-35">
<rect rx="6" ry="6" x="-28" y="-26" width="55" height="52" class="key"/>
<text x="0" y="0" class="key tap">⌫</text>
<text x="0" y="-24" class="key shifted">⌦</text>
</g>
<g class="combo combopos-0">
<rect rx="6" ry="6" x="655" y="137" width="28" height="26" class="combo"/>
<text x="669" y="150" class="combo tap">RET</text>
</g>
<g class="combo combopos-1">
<rect rx="6" ry="6" x="655" y="81" width="28" height="26" class="combo"/>
<text x="669" y="94" class="combo tap"><tspan style="font-size: 78%">BACKSPACE</tspan></text>
</g>
<g class="combo combopos-2">
<rect rx="6" ry="6" x="105" y="137" width="28" height="26" class="combo"/>
<text x="119" y="150" class="combo tap">⎋</text>
</g>
<g class="combo combopos-3">
<rect rx="6" ry="6" x="595" y="26" width="28" height="26" class="combo"/>
<text x="609" y="39" class="combo tap">?</text>
<text x="609" y="28" class="combo shifted">!</text>
</g>
<g class="combo combopos-4">
<rect rx="6" ry="6" x="164" y="26" width="28" height="26" class="combo"/>
<text x="178" y="39" class="combo tap">,</text>
<text x="178" y="28" class="combo shifted">;</text>
</g>
<g class="combo combopos-5">
<rect rx="6" ry="6" x="164" y="82" width="28" height="26" class="combo"/>
<text x="178" y="95" class="combo tap">&#x27;</text>
</g>
<g class="combo combopos-6">
<rect rx="6" ry="6" x="164" y="138" width="28" height="26" class="combo"/>
<text x="178" y="151" class="combo tap">&quot;</text>
</g>
<g class="combo combopos-7">
<path d="M394,199 l-344,0" class="combo"/>
<path d="M394,199 l344,0" class="combo"/>
<rect rx="6" ry="6" x="380" y="186" width="28" height="26" class="combo"/>
<text x="394" y="199" class="combo tap"><tspan style="font-size: 60%">LC(LA(DELETE))</tspan></text>
</g>
<g class="combo combopos-8">
<path d="M394,58 l-107,0" class="combo"/>
<path d="M394,58 l107,0" class="combo"/>
<rect rx="6" ry="6" x="380" y="45" width="28" height="26" class="combo"/>
<text x="394" y="58" class="combo tap">-</text>
</g>
<g class="combo combopos-9">
<path d="M394,114 l-107,0" class="combo"/>
<path d="M394,114 l107,0" class="combo"/>
<rect rx="6" ry="6" x="380" y="101" width="28" height="26" class="combo"/>
<text x="394" y="114" class="combo tap">=</text>
</g>
<g class="combo combopos-10">
<path d="M394,170 l-107,0" class="combo"/>
<path d="M394,170 l107,0" class="combo"/>
<rect rx="6" ry="6" x="380" y="157" width="28" height="26" class="combo"/>
<text x="394" y="170" class="combo tap">_</text>
</g>
<g class="combo combopos-11">
<path d="M394,106 l-166,0" class="combo"/>
<path d="M394,106 l166,0" class="combo"/>
<rect rx="6" ry="6" x="380" y="93" width="28" height="26" class="combo"/>
<text x="394" y="106" class="combo tap">⇪</text>
</g>
<g class="combo combopos-12">
<rect rx="6" ry="6" x="105" y="25" width="28" height="26" class="combo"/>
<text x="119" y="38" class="combo tap">↹</text>
</g>
<g class="combo combopos-13">
<rect rx="6" ry="6" x="105" y="81" width="28" height="26" class="combo"/>
<text x="119" y="94" class="combo tap">.</text>
<text x="119" y="83" class="combo shifted">:</text>
</g>
<g class="combo combopos-14">
<path d="M148,72 l-99,12" class="combo"/>
<path d="M148,72 l99,-12" class="combo"/>
<rect rx="6" ry="6" x="134" y="59" width="28" height="26" class="combo"/>
<text x="148" y="72" class="combo tap"><tspan style="font-size: 78%">LG(LS(S))</tspan></text>
</g>
<g class="combo combopos-15">
<path d="M148,49 l-40,-1" class="combo"/>
<path d="M148,49 l40,1" class="combo"/>
<rect rx="6" ry="6" x="134" y="36" width="28" height="26" class="combo"/>
<text x="148" y="49" class="combo tap">[</text>
</g>
<g class="combo combopos-16">
<path d="M639,49 l40,-1" class="combo"/>
<path d="M639,49 l-40,1" class="combo"/>
<rect rx="6" ry="6" x="625" y="36" width="28" height="26" class="combo"/>
<text x="639" y="49" class="combo tap">]</text>
</g>
<g class="combo combopos-17">
<path d="M148,161 l-40,-1" class="combo"/>
<path d="M148,161 l40,1" class="combo"/>
<rect rx="6" ry="6" x="134" y="148" width="28" height="26" class="combo"/>
<text x="148" y="161" class="combo tap">(</text>
</g>
<g class="combo combopos-18">
<path d="M639,161 l40,-1" class="combo"/>
<path d="M639,161 l-40,1" class="combo"/>
<rect rx="6" ry="6" x="625" y="148" width="28" height="26" class="combo"/>
<text x="639" y="161" class="combo tap">)</text>
</g>
<g class="combo combopos-19">
<rect rx="6" ry="6" x="655" y="25" width="28" height="26" class="combo"/>
<text x="669" y="38" class="combo tap">DEL</text>
</g>
</g>
</g>
<g transform="translate(30, 354)" class="layer-Navigation">
<text x="0" y="28" class="label">Navigation:</text>
<g transform="translate(0, 56)">
<g transform="translate(30, 87)" class="key trans keypos-0">
<rect rx="6" ry="6" x="-28" y="-26" width="55" height="52" class="key trans"/>
<text x="0" y="0" class="key trans tap">▽</text>
</g>
<g transform="translate(89, 48)" class="key trans keypos-1">
<rect rx="6" ry="6" x="-28" y="-26" width="55" height="52" class="key trans"/>
<text x="0" y="0" class="key trans tap">▽</text>
</g>
<g transform="translate(148, 28)" class="key trans keypos-2">
<rect rx="6" ry="6" x="-28" y="-26" width="55" height="52" class="key trans"/>
<text x="0" y="0" class="key trans tap">▽</text>
</g>
<g transform="translate(208, 50)" class="key trans keypos-3">
<rect rx="6" ry="6" x="-28" y="-26" width="55" height="52" class="key trans"/>
<text x="0" y="0" class="key trans tap">▽</text>
</g>
<g transform="translate(267, 58)" class="key trans keypos-4">
<rect rx="6" ry="6" x="-28" y="-26" width="55" height="52" class="key trans"/>
<text x="0" y="0" class="key trans tap">▽</text>
</g>
<g transform="translate(520, 58)" class="key keypos-5">
<rect rx="6" ry="6" x="-28" y="-26" width="55" height="52" class="key"/>
<text x="0" y="0" class="key tap">HOME</text>
</g>
<g transform="translate(580, 50)" class="key keypos-6">
<rect rx="6" ry="6" x="-28" y="-26" width="55" height="52" class="key"/>
<text x="0" y="0" class="key tap">{</text>
</g>
<g transform="translate(639, 28)" class="key keypos-7">
<rect rx="6" ry="6" x="-28" y="-26" width="55" height="52" class="key"/>
<text x="0" y="0" class="key tap">}</text>
</g>
<g transform="translate(698, 48)" class="key trans keypos-8">
<rect rx="6" ry="6" x="-28" y="-26" width="55" height="52" class="key trans"/>
<text x="0" y="0" class="key trans tap">▽</text>
</g>
<g transform="translate(758, 87)" class="key keypos-9">
<rect rx="6" ry="6" x="-28" y="-26" width="55" height="52" class="key"/>
<text x="0" y="0" class="key tap">END</text>
</g>
<g transform="translate(30, 143)" class="key trans keypos-10">
<rect rx="6" ry="6" x="-28" y="-26" width="55" height="52" class="key trans"/>
<text x="0" y="0" class="key trans tap">▽</text>
</g>
<g transform="translate(89, 104)" class="key trans keypos-11">
<rect rx="6" ry="6" x="-28" y="-26" width="55" height="52" class="key trans"/>
<text x="0" y="0" class="key trans tap">▽</text>
</g>
<g transform="translate(148, 84)" class="key keypos-12">
<rect rx="6" ry="6" x="-28" y="-26" width="55" height="52" class="key"/>
<text x="0" y="0" class="key tap">
<tspan x="0" dy="-1.2em">Nav</tspan><tspan x="0" dy="1.2em">2</tspan>
</text>
<text x="0" y="24" class="key hold">sticky</text>
</g>
<g transform="translate(208, 106)" class="key held keypos-13">
<rect rx="6" ry="6" x="-28" y="-26" width="55" height="52" class="key held"/>
</g>
<g transform="translate(267, 114)" class="key trans keypos-14">
<rect rx="6" ry="6" x="-28" y="-26" width="55" height="52" class="key trans"/>
<text x="0" y="0" class="key trans tap">▽</text>
</g>
<g transform="translate(520, 114)" class="key keypos-15">
<rect rx="6" ry="6" x="-28" y="-26" width="55" height="52" class="key"/>
<text x="0" y="0" class="key tap">←</text>
</g>
<g transform="translate(580, 106)" class="key keypos-16">
<rect rx="6" ry="6" x="-28" y="-26" width="55" height="52" class="key"/>
<text x="0" y="0" class="key tap">↓</text>
</g>
<g transform="translate(639, 84)" class="key keypos-17">
<rect rx="6" ry="6" x="-28" y="-26" width="55" height="52" class="key"/>
<text x="0" y="0" class="key tap">↑</text>
</g>
<g transform="translate(698, 104)" class="key keypos-18">
<rect rx="6" ry="6" x="-28" y="-26" width="55" height="52" class="key"/>
<text x="0" y="0" class="key tap">→</text>
</g>
<g transform="translate(758, 143)" class="key trans keypos-19">
<rect rx="6" ry="6" x="-28" y="-26" width="55" height="52" class="key trans"/>
<text x="0" y="0" class="key trans tap">▽</text>
</g>
<g transform="translate(30, 199)" class="key trans keypos-20">
<rect rx="6" ry="6" x="-28" y="-26" width="55" height="52" class="key trans"/>
<text x="0" y="0" class="key trans tap">▽</text>
</g>
<g transform="translate(89, 160)" class="key trans keypos-21">
<rect rx="6" ry="6" x="-28" y="-26" width="55" height="52" class="key trans"/>
<text x="0" y="0" class="key trans tap">▽</text>
</g>
<g transform="translate(148, 140)" class="key trans keypos-22">
<rect rx="6" ry="6" x="-28" y="-26" width="55" height="52" class="key trans"/>
<text x="0" y="0" class="key trans tap">▽</text>
</g>
<g transform="translate(208, 162)" class="key trans keypos-23">
<rect rx="6" ry="6" x="-28" y="-26" width="55" height="52" class="key trans"/>
<text x="0" y="0" class="key trans tap">▽</text>
</g>
<g transform="translate(267, 170)" class="key trans keypos-24">
<rect rx="6" ry="6" x="-28" y="-26" width="55" height="52" class="key trans"/>
<text x="0" y="0" class="key trans tap">▽</text>
</g>
<g transform="translate(520, 170)" class="key trans keypos-25">
<rect rx="6" ry="6" x="-28" y="-26" width="55" height="52" class="key trans"/>
<text x="0" y="0" class="key trans tap">▽</text>
</g>
<g transform="translate(580, 162)" class="key keypos-26">
<rect rx="6" ry="6" x="-28" y="-26" width="55" height="52" class="key"/>
<text x="0" y="0" class="key tap">[</text>
</g>
<g transform="translate(639, 140)" class="key keypos-27">
<rect rx="6" ry="6" x="-28" y="-26" width="55" height="52" class="key"/>
<text x="0" y="0" class="key tap">]</text>
</g>
<g transform="translate(698, 160)" class="key trans keypos-28">
<rect rx="6" ry="6" x="-28" y="-26" width="55" height="52" class="key trans"/>
<text x="0" y="0" class="key trans tap">▽</text>
</g>
<g transform="translate(758, 199)" class="key trans keypos-29">
<rect rx="6" ry="6" x="-28" y="-26" width="55" height="52" class="key trans"/>
<text x="0" y="0" class="key trans tap">▽</text>
</g>
<g transform="translate(188, 228)" class="key trans keypos-30">
<rect rx="6" ry="6" x="-28" y="-26" width="55" height="52" class="key trans"/>
<text x="0" y="0" class="key trans tap">▽</text>
</g>
<g transform="translate(254, 236) rotate(15.0)" class="key trans keypos-31">
<rect rx="6" ry="6" x="-28" y="-26" width="55" height="52" class="key trans"/>
<text x="0" y="0" class="key trans tap">▽</text>
</g>
<g transform="translate(321, 246) rotate(30.0)" class="key trans keypos-32">
<rect rx="6" ry="6" x="-26" y="-42" width="52" height="85" class="key trans"/>
<text x="0" y="0" class="key trans tap">▽</text>
</g>
<g transform="translate(463, 246) rotate(-30.0)" class="key keypos-33">
<rect rx="6" ry="6" x="-26" y="-42" width="52" height="85" class="key"/>
<text x="0" y="0" class="key tap"><tspan style="font-size: 78%">BACKSPACE</tspan></text>
</g>
<g transform="translate(533, 235) rotate(-15.0)" class="key keypos-34">
<rect rx="6" ry="6" x="-28" y="-26" width="55" height="52" class="key"/>
<text x="0" y="0" class="key tap">DELETE</text>
</g>
<g transform="translate(599, 228)" class="key trans keypos-35">
<rect rx="6" ry="6" x="-28" y="-26" width="55" height="52" class="key trans"/>
<text x="0" y="0" class="key trans tap">▽</text>
</g>
<g class="combo combopos-0">
<rect rx="6" ry="6" x="655" y="137" width="28" height="26" class="combo"/>
<text x="669" y="150" class="combo tap">RET</text>
</g>
<g class="combo combopos-1">
<rect rx="6" ry="6" x="655" y="81" width="28" height="26" class="combo"/>
<text x="669" y="94" class="combo tap"><tspan style="font-size: 78%">BACKSPACE</tspan></text>
</g>
<g class="combo combopos-2">
<rect rx="6" ry="6" x="105" y="137" width="28" height="26" class="combo"/>
<text x="119" y="150" class="combo tap">⎋</text>
</g>
<g class="combo combopos-3">
<rect rx="6" ry="6" x="595" y="26" width="28" height="26" class="combo"/>
<text x="609" y="39" class="combo tap">?</text>
<text x="609" y="28" class="combo shifted">!</text>
</g>
<g class="combo combopos-4">
<rect rx="6" ry="6" x="164" y="26" width="28" height="26" class="combo"/>
<text x="178" y="39" class="combo tap">,</text>
<text x="178" y="28" class="combo shifted">;</text>
</g>
<g class="combo combopos-5">
<rect rx="6" ry="6" x="164" y="138" width="28" height="26" class="combo"/>
<text x="178" y="151" class="combo tap">&quot;</text>
</g>
<g class="combo combopos-6">
<path d="M394,199 l-344,0" class="combo"/>
<path d="M394,199 l344,0" class="combo"/>
<rect rx="6" ry="6" x="380" y="186" width="28" height="26" class="combo"/>
<text x="394" y="199" class="combo tap"><tspan style="font-size: 60%">LC(LA(DELETE))</tspan></text>
</g>
<g class="combo combopos-7">
<path d="M394,58 l-107,0" class="combo"/>
<path d="M394,58 l107,0" class="combo"/>
<rect rx="6" ry="6" x="380" y="45" width="28" height="26" class="combo"/>
<text x="394" y="58" class="combo tap">-</text>
</g>
<g class="combo combopos-8">
<path d="M394,114 l-107,0" class="combo"/>
<path d="M394,114 l107,0" class="combo"/>
<rect rx="6" ry="6" x="380" y="101" width="28" height="26" class="combo"/>
<text x="394" y="114" class="combo tap">=</text>
</g>
<g class="combo combopos-9">
<path d="M394,170 l-107,0" class="combo"/>
<path d="M394,170 l107,0" class="combo"/>
<rect rx="6" ry="6" x="380" y="157" width="28" height="26" class="combo"/>
<text x="394" y="170" class="combo tap">_</text>
</g>
<g class="combo combopos-10">
<path d="M394,106 l-166,0" class="combo"/>
<path d="M394,106 l166,0" class="combo"/>
<rect rx="6" ry="6" x="380" y="93" width="28" height="26" class="combo"/>
<text x="394" y="106" class="combo tap">⇪</text>
</g>
<g class="combo combopos-11">
<rect rx="6" ry="6" x="105" y="25" width="28" height="26" class="combo"/>
<text x="119" y="38" class="combo tap">↹</text>
</g>
<g class="combo combopos-12">
<rect rx="6" ry="6" x="105" y="81" width="28" height="26" class="combo"/>
<text x="119" y="94" class="combo tap">.</text>
<text x="119" y="83" class="combo shifted">:</text>
</g>
<g class="combo combopos-13">
<path d="M148,72 l-99,12" class="combo"/>
<path d="M148,72 l99,-12" class="combo"/>
<rect rx="6" ry="6" x="134" y="59" width="28" height="26" class="combo"/>
<text x="148" y="72" class="combo tap"><tspan style="font-size: 78%">LG(LS(S))</tspan></text>
</g>
<g class="combo combopos-14">
<path d="M148,49 l-40,-1" class="combo"/>
<path d="M148,49 l40,1" class="combo"/>
<rect rx="6" ry="6" x="134" y="36" width="28" height="26" class="combo"/>
<text x="148" y="49" class="combo tap">[</text>
</g>
<g class="combo combopos-15">
<path d="M639,49 l40,-1" class="combo"/>
<path d="M639,49 l-40,1" class="combo"/>
<rect rx="6" ry="6" x="625" y="36" width="28" height="26" class="combo"/>
<text x="639" y="49" class="combo tap">]</text>
</g>
<g class="combo combopos-16">
<path d="M148,161 l-40,-1" class="combo"/>
<path d="M148,161 l40,1" class="combo"/>
<rect rx="6" ry="6" x="134" y="148" width="28" height="26" class="combo"/>
<text x="148" y="161" class="combo tap">(</text>
</g>
<g class="combo combopos-17">
<path d="M639,161 l40,-1" class="combo"/>
<path d="M639,161 l-40,1" class="combo"/>
<rect rx="6" ry="6" x="625" y="148" width="28" height="26" class="combo"/>
<text x="639" y="161" class="combo tap">)</text>
</g>
<g class="combo combopos-18">
<rect rx="6" ry="6" x="655" y="25" width="28" height="26" class="combo"/>
<text x="669" y="38" class="combo tap">DEL</text>
</g>
</g>
</g>
<g transform="translate(30, 709)" class="layer-Numeric">
<text x="0" y="28" class="label">Numeric:</text>
<g transform="translate(0, 56)">
<g transform="translate(30, 87)" class="key trans keypos-0">
<rect rx="6" ry="6" x="-28" y="-26" width="55" height="52" class="key trans"/>
<text x="0" y="0" class="key trans tap">▽</text>
</g>
<g transform="translate(89, 48)" class="key keypos-1">
<rect rx="6" ry="6" x="-28" y="-26" width="55" height="52" class="key"/>
<text x="0" y="0" class="key tap">7</text>
</g>
<g transform="translate(148, 28)" class="key keypos-2">
<rect rx="6" ry="6" x="-28" y="-26" width="55" height="52" class="key"/>
<text x="0" y="0" class="key tap">8</text>
</g>
<g transform="translate(208, 50)" class="key keypos-3">
<rect rx="6" ry="6" x="-28" y="-26" width="55" height="52" class="key"/>
<text x="0" y="0" class="key tap">9</text>
</g>
<g transform="translate(267, 58)" class="key trans keypos-4">
<rect rx="6" ry="6" x="-28" y="-26" width="55" height="52" class="key trans"/>
<text x="0" y="0" class="key trans tap">▽</text>
</g>
<g transform="translate(520, 58)" class="key trans keypos-5">
<rect rx="6" ry="6" x="-28" y="-26" width="55" height="52" class="key trans"/>
<text x="0" y="0" class="key trans tap">▽</text>
</g>
<g transform="translate(580, 50)" class="key keypos-6">
<rect rx="6" ry="6" x="-28" y="-26" width="55" height="52" class="key"/>
<text x="0" y="0" class="key tap">7</text>
</g>
<g transform="translate(639, 28)" class="key keypos-7">
<rect rx="6" ry="6" x="-28" y="-26" width="55" height="52" class="key"/>
<text x="0" y="0" class="key tap">8</text>
</g>
<g transform="translate(698, 48)" class="key keypos-8">
<rect rx="6" ry="6" x="-28" y="-26" width="55" height="52" class="key"/>
<text x="0" y="0" class="key tap">9</text>
</g>
<g transform="translate(758, 87)" class="key trans keypos-9">
<rect rx="6" ry="6" x="-28" y="-26" width="55" height="52" class="key trans"/>
<text x="0" y="0" class="key trans tap">▽</text>
</g>
<g transform="translate(30, 143)" class="key keypos-10">
<rect rx="6" ry="6" x="-28" y="-26" width="55" height="52" class="key"/>
<text x="0" y="0" class="key tap">0</text>
</g>
<g transform="translate(89, 104)" class="key keypos-11">
<rect rx="6" ry="6" x="-28" y="-26" width="55" height="52" class="key"/>
<text x="0" y="0" class="key tap">4</text>
</g>
<g transform="translate(148, 84)" class="key held keypos-12">
<rect rx="6" ry="6" x="-28" y="-26" width="55" height="52" class="key held"/>
<text x="0" y="0" class="key held tap">5</text>
</g>
<g transform="translate(208, 106)" class="key keypos-13">
<rect rx="6" ry="6" x="-28" y="-26" width="55" height="52" class="key"/>
<text x="0" y="0" class="key tap">6</text>
</g>
<g transform="translate(267, 114)" class="key keypos-14">
<rect rx="6" ry="6" x="-28" y="-26" width="55" height="52" class="key"/>
<text x="0" y="0" class="key tap">&amp;zeroes</text>
</g>
<g transform="translate(520, 114)" class="key keypos-15">
<rect rx="6" ry="6" x="-28" y="-26" width="55" height="52" class="key"/>
<text x="0" y="0" class="key tap">&amp;zeroes</text>
</g>
<g transform="translate(580, 106)" class="key keypos-16">
<rect rx="6" ry="6" x="-28" y="-26" width="55" height="52" class="key"/>
<text x="0" y="0" class="key tap">4</text>
</g>
<g transform="translate(639, 84)" class="key keypos-17">
<rect rx="6" ry="6" x="-28" y="-26" width="55" height="52" class="key"/>
<text x="0" y="0" class="key tap">5</text>
</g>
<g transform="translate(698, 104)" class="key keypos-18">
<rect rx="6" ry="6" x="-28" y="-26" width="55" height="52" class="key"/>
<text x="0" y="0" class="key tap">6</text>
</g>
<g transform="translate(758, 143)" class="key keypos-19">
<rect rx="6" ry="6" x="-28" y="-26" width="55" height="52" class="key"/>
<text x="0" y="0" class="key tap">0</text>
</g>
<g transform="translate(30, 199)" class="key trans keypos-20">
<rect rx="6" ry="6" x="-28" y="-26" width="55" height="52" class="key trans"/>
<text x="0" y="0" class="key trans tap">▽</text>
</g>
<g transform="translate(89, 160)" class="key keypos-21">
<rect rx="6" ry="6" x="-28" y="-26" width="55" height="52" class="key"/>
<text x="0" y="0" class="key tap">1</text>
</g>
<g transform="translate(148, 140)" class="key keypos-22">
<rect rx="6" ry="6" x="-28" y="-26" width="55" height="52" class="key"/>
<text x="0" y="0" class="key tap">2</text>
</g>
<g transform="translate(208, 162)" class="key keypos-23">
<rect rx="6" ry="6" x="-28" y="-26" width="55" height="52" class="key"/>
<text x="0" y="0" class="key tap">3</text>
</g>
<g transform="translate(267, 170)" class="key trans keypos-24">
<rect rx="6" ry="6" x="-28" y="-26" width="55" height="52" class="key trans"/>
<text x="0" y="0" class="key trans tap">▽</text>
</g>
<g transform="translate(520, 170)" class="key trans keypos-25">
<rect rx="6" ry="6" x="-28" y="-26" width="55" height="52" class="key trans"/>
<text x="0" y="0" class="key trans tap">▽</text>
</g>
<g transform="translate(580, 162)" class="key keypos-26">
<rect rx="6" ry="6" x="-28" y="-26" width="55" height="52" class="key"/>
<text x="0" y="0" class="key tap">1</text>
</g>
<g transform="translate(639, 140)" class="key keypos-27">
<rect rx="6" ry="6" x="-28" y="-26" width="55" height="52" class="key"/>
<text x="0" y="0" class="key tap">2</text>
</g>
<g transform="translate(698, 160)" class="key keypos-28">
<rect rx="6" ry="6" x="-28" y="-26" width="55" height="52" class="key"/>
<text x="0" y="0" class="key tap">3</text>
</g>
<g transform="translate(758, 199)" class="key trans keypos-29">
<rect rx="6" ry="6" x="-28" y="-26" width="55" height="52" class="key trans"/>
<text x="0" y="0" class="key trans tap">▽</text>
</g>
<g transform="translate(188, 228)" class="key trans keypos-30">
<rect rx="6" ry="6" x="-28" y="-26" width="55" height="52" class="key trans"/>
<text x="0" y="0" class="key trans tap">▽</text>
</g>
<g transform="translate(254, 236) rotate(15.0)" class="key trans keypos-31">
<rect rx="6" ry="6" x="-28" y="-26" width="55" height="52" class="key trans"/>
<text x="0" y="0" class="key trans tap">▽</text>
</g>
<g transform="translate(321, 246) rotate(30.0)" class="key trans keypos-32">
<rect rx="6" ry="6" x="-26" y="-42" width="52" height="85" class="key trans"/>
<text x="0" y="0" class="key trans tap">▽</text>
</g>
<g transform="translate(463, 246) rotate(-30.0)" class="key keypos-33">
<rect rx="6" ry="6" x="-26" y="-42" width="52" height="85" class="key"/>
<text x="0" y="0" class="key tap">SPACE</text>
</g>
<g transform="translate(533, 235) rotate(-15.0)" class="key keypos-34">
<rect rx="6" ry="6" x="-28" y="-26" width="55" height="52" class="key"/>
<text x="0" y="0" class="key tap">DEL</text>
</g>
<g transform="translate(599, 228)" class="key trans keypos-35">
<rect rx="6" ry="6" x="-28" y="-26" width="55" height="52" class="key trans"/>
<text x="0" y="0" class="key trans tap">▽</text>
</g>
<g class="combo combopos-0">
<rect rx="6" ry="6" x="655" y="137" width="28" height="26" class="combo"/>
<text x="669" y="150" class="combo tap">RET</text>
</g>
<g class="combo combopos-1">
<rect rx="6" ry="6" x="655" y="81" width="28" height="26" class="combo"/>
<text x="669" y="94" class="combo tap"><tspan style="font-size: 78%">BACKSPACE</tspan></text>
</g>
<g class="combo combopos-2">
<rect rx="6" ry="6" x="105" y="137" width="28" height="26" class="combo"/>
<text x="119" y="150" class="combo tap">⎋</text>
</g>
<g class="combo combopos-3">
<rect rx="6" ry="6" x="595" y="26" width="28" height="26" class="combo"/>
<text x="609" y="39" class="combo tap">?</text>
<text x="609" y="28" class="combo shifted">!</text>
</g>
<g class="combo combopos-4">
<rect rx="6" ry="6" x="164" y="26" width="28" height="26" class="combo"/>
<text x="178" y="39" class="combo tap">,</text>
<text x="178" y="28" class="combo shifted">;</text>
</g>
<g class="combo combopos-5">
<rect rx="6" ry="6" x="164" y="138" width="28" height="26" class="combo"/>
<text x="178" y="151" class="combo tap">&quot;</text>
</g>
<g class="combo combopos-6">
<path d="M394,199 l-344,0" class="combo"/>
<path d="M394,199 l344,0" class="combo"/>
<rect rx="6" ry="6" x="380" y="186" width="28" height="26" class="combo"/>
<text x="394" y="199" class="combo tap"><tspan style="font-size: 60%">LC(LA(DELETE))</tspan></text>
</g>
<g class="combo combopos-7">
<path d="M394,58 l-107,0" class="combo"/>
<path d="M394,58 l107,0" class="combo"/>
<rect rx="6" ry="6" x="380" y="45" width="28" height="26" class="combo"/>
<text x="394" y="58" class="combo tap">-</text>
</g>
<g class="combo combopos-8">
<path d="M394,114 l-107,0" class="combo"/>
<path d="M394,114 l107,0" class="combo"/>
<rect rx="6" ry="6" x="380" y="101" width="28" height="26" class="combo"/>
<text x="394" y="114" class="combo tap">=</text>
</g>
<g class="combo combopos-9">
<path d="M394,170 l-107,0" class="combo"/>
<path d="M394,170 l107,0" class="combo"/>
<rect rx="6" ry="6" x="380" y="157" width="28" height="26" class="combo"/>
<text x="394" y="170" class="combo tap">_</text>
</g>
<g class="combo combopos-10">
<path d="M394,106 l-166,0" class="combo"/>
<path d="M394,106 l166,0" class="combo"/>
<rect rx="6" ry="6" x="380" y="93" width="28" height="26" class="combo"/>
<text x="394" y="106" class="combo tap">⇪</text>
</g>
<g class="combo combopos-11">
<rect rx="6" ry="6" x="105" y="25" width="28" height="26" class="combo"/>
<text x="119" y="38" class="combo tap">↹</text>
</g>
<g class="combo combopos-12">
<rect rx="6" ry="6" x="105" y="81" width="28" height="26" class="combo"/>
<text x="119" y="94" class="combo tap">.</text>
<text x="119" y="83" class="combo shifted">:</text>
</g>
<g class="combo combopos-13">
<path d="M148,72 l-99,12" class="combo"/>
<path d="M148,72 l99,-12" class="combo"/>
<rect rx="6" ry="6" x="134" y="59" width="28" height="26" class="combo"/>
<text x="148" y="72" class="combo tap"><tspan style="font-size: 78%">LG(LS(S))</tspan></text>
</g>
<g class="combo combopos-14">
<path d="M148,49 l-40,-1" class="combo"/>
<path d="M148,49 l40,1" class="combo"/>
<rect rx="6" ry="6" x="134" y="36" width="28" height="26" class="combo"/>
<text x="148" y="49" class="combo tap">[</text>
</g>
<g class="combo combopos-15">
<path d="M639,49 l40,-1" class="combo"/>
<path d="M639,49 l-40,1" class="combo"/>
<rect rx="6" ry="6" x="625" y="36" width="28" height="26" class="combo"/>
<text x="639" y="49" class="combo tap">]</text>
</g>
<g class="combo combopos-16">
<path d="M148,161 l-40,-1" class="combo"/>
<path d="M148,161 l40,1" class="combo"/>
<rect rx="6" ry="6" x="134" y="148" width="28" height="26" class="combo"/>
<text x="148" y="161" class="combo tap">(</text>
</g>
<g class="combo combopos-17">
<path d="M639,161 l40,-1" class="combo"/>
<path d="M639,161 l-40,1" class="combo"/>
<rect rx="6" ry="6" x="625" y="148" width="28" height="26" class="combo"/>
<text x="639" y="161" class="combo tap">)</text>
</g>
<g class="combo combopos-18">
<rect rx="6" ry="6" x="655" y="25" width="28" height="26" class="combo"/>
<text x="669" y="38" class="combo tap">DEL</text>
</g>
</g>
</g>
<g transform="translate(30, 1063)" class="layer-Symbol">
<text x="0" y="28" class="label">Symbol:</text>
<g transform="translate(0, 56)">
<g transform="translate(30, 87)" class="key keypos-0">
<rect rx="6" ry="6" x="-28" y="-26" width="55" height="52" class="key"/>
<text x="0" y="0" class="key tap">`</text>
<text x="0" y="-24" class="key shifted">~</text>
</g>
<g transform="translate(89, 48)" class="key keypos-1">
<rect rx="6" ry="6" x="-28" y="-26" width="55" height="52" class="key"/>
<text x="0" y="0" class="key tap">@</text>
</g>
<g transform="translate(148, 28)" class="key keypos-2">
<rect rx="6" ry="6" x="-28" y="-26" width="55" height="52" class="key"/>
<text x="0" y="0" class="key tap">{</text>
</g>
<g transform="translate(208, 50)" class="key keypos-3">
<rect rx="6" ry="6" x="-28" y="-26" width="55" height="52" class="key"/>
<text x="0" y="0" class="key tap">}</text>
</g>
<g transform="translate(267, 58)" class="key keypos-4">
<rect rx="6" ry="6" x="-28" y="-26" width="55" height="52" class="key"/>
<text x="0" y="0" class="key tap">%</text>
</g>
<g transform="translate(520, 58)" class="key keypos-5">
<rect rx="6" ry="6" x="-28" y="-26" width="55" height="52" class="key"/>
<text x="0" y="0" class="key tap">$</text>
</g>
<g transform="translate(580, 50)" class="key keypos-6">
<rect rx="6" ry="6" x="-28" y="-26" width="55" height="52" class="key"/>
<text x="0" y="0" class="key tap">?</text>
</g>
<g transform="translate(639, 28)" class="key keypos-7">
<rect rx="6" ry="6" x="-28" y="-26" width="55" height="52" class="key"/>
<text x="0" y="0" class="key tap">/</text>
<text x="0" y="-24" class="key shifted">?</text>
</g>
<g transform="translate(698, 48)" class="key keypos-8">
<rect rx="6" ry="6" x="-28" y="-26" width="55" height="52" class="key"/>
<text x="0" y="0" class="key tap">\</text>
<text x="0" y="-24" class="key shifted">|</text>
</g>
<g transform="translate(758, 87)" class="key trans keypos-9">
<rect rx="6" ry="6" x="-28" y="-26" width="55" height="52" class="key trans"/>
<text x="0" y="0" class="key trans tap">▽</text>
</g>
<g transform="translate(30, 143)" class="key keypos-10">
<rect rx="6" ry="6" x="-28" y="-26" width="55" height="52" class="key"/>
<text x="0" y="0" class="key tap">⌃</text>
</g>
<g transform="translate(89, 104)" class="key held keypos-11">
<rect rx="6" ry="6" x="-28" y="-26" width="55" height="52" class="key held"/>
<text x="0" y="0" class="key held tap">#</text>
</g>
<g transform="translate(148, 84)" class="key keypos-12">
<rect rx="6" ry="6" x="-28" y="-26" width="55" height="52" class="key"/>
<text x="0" y="0" class="key tap">+</text>
</g>
<g transform="translate(208, 106)" class="key keypos-13">
<rect rx="6" ry="6" x="-28" y="-26" width="55" height="52" class="key"/>
<text x="0" y="0" class="key tap">=</text>
<text x="0" y="-24" class="key shifted">+</text>
</g>
<g transform="translate(267, 114)" class="key keypos-14">
<rect rx="6" ry="6" x="-28" y="-26" width="55" height="52" class="key"/>
<text x="0" y="0" class="key tap">*</text>
</g>
<g transform="translate(520, 114)" class="key keypos-15">
<rect rx="6" ry="6" x="-28" y="-26" width="55" height="52" class="key"/>
<text x="0" y="0" class="key tap">!</text>
</g>
<g transform="translate(580, 106)" class="key keypos-16">
<rect rx="6" ry="6" x="-28" y="-26" width="55" height="52" class="key"/>
<text x="0" y="0" class="key tap">:</text>
</g>
<g transform="translate(639, 84)" class="key keypos-17">
<rect rx="6" ry="6" x="-28" y="-26" width="55" height="52" class="key"/>
<text x="0" y="0" class="key tap">~</text>
</g>
<g transform="translate(698, 104)" class="key keypos-18">
<rect rx="6" ry="6" x="-28" y="-26" width="55" height="52" class="key"/>
<text x="0" y="0" class="key tap">|</text>
</g>
<g transform="translate(758, 143)" class="key trans keypos-19">
<rect rx="6" ry="6" x="-28" y="-26" width="55" height="52" class="key trans"/>
<text x="0" y="0" class="key trans tap">▽</text>
</g>
<g transform="translate(30, 199)" class="key keypos-20">
<rect rx="6" ry="6" x="-28" y="-26" width="55" height="52" class="key"/>
<text x="0" y="0" class="key tap">-</text>
<text x="0" y="-24" class="key shifted">_</text>
</g>
<g transform="translate(89, 160)" class="key keypos-21">
<rect rx="6" ry="6" x="-28" y="-26" width="55" height="52" class="key"/>
<text x="0" y="0" class="key tap">&amp;</text>
</g>
<g transform="translate(148, 140)" class="key keypos-22">
<rect rx="6" ry="6" x="-28" y="-26" width="55" height="52" class="key"/>
<text x="0" y="0" class="key tap">&#x27;</text>
</g>
<g transform="translate(208, 162)" class="key keypos-23">
<rect rx="6" ry="6" x="-28" y="-26" width="55" height="52" class="key"/>
<text x="0" y="0" class="key tap">&quot;</text>
</g>
<g transform="translate(267, 170)" class="key keypos-24">
<rect rx="6" ry="6" x="-28" y="-26" width="55" height="52" class="key"/>
<text x="0" y="0" class="key tap">`</text>
<text x="0" y="-24" class="key shifted">~</text>
</g>
<g transform="translate(520, 170)" class="key keypos-25">
<rect rx="6" ry="6" x="-28" y="-26" width="55" height="52" class="key"/>
<text x="0" y="0" class="key tap">_</text>
</g>
<g transform="translate(580, 162)" class="key keypos-26">
<rect rx="6" ry="6" x="-28" y="-26" width="55" height="52" class="key"/>
<text x="0" y="0" class="key tap">&lt;</text>
</g>
<g transform="translate(639, 140)" class="key keypos-27">
<rect rx="6" ry="6" x="-28" y="-26" width="55" height="52" class="key"/>
<text x="0" y="0" class="key tap">&gt;</text>
</g>
<g transform="translate(698, 160)" class="key keypos-28">
<rect rx="6" ry="6" x="-28" y="-26" width="55" height="52" class="key"/>
<text x="0" y="0" class="key tap">&amp;arrow</text>
</g>
<g transform="translate(758, 199)" class="key trans keypos-29">
<rect rx="6" ry="6" x="-28" y="-26" width="55" height="52" class="key trans"/>
<text x="0" y="0" class="key trans tap">▽</text>
</g>
<g transform="translate(188, 228)" class="key trans keypos-30">
<rect rx="6" ry="6" x="-28" y="-26" width="55" height="52" class="key trans"/>
<text x="0" y="0" class="key trans tap">▽</text>
</g>
<g transform="translate(254, 236) rotate(15.0)" class="key trans keypos-31">
<rect rx="6" ry="6" x="-28" y="-26" width="55" height="52" class="key trans"/>
<text x="0" y="0" class="key trans tap">▽</text>
</g>
<g transform="translate(321, 246) rotate(30.0)" class="key trans keypos-32">
<rect rx="6" ry="6" x="-26" y="-42" width="52" height="85" class="key trans"/>
<text x="0" y="0" class="key trans tap">▽</text>
</g>
<g transform="translate(463, 246) rotate(-30.0)" class="key trans keypos-33">
<rect rx="6" ry="6" x="-26" y="-42" width="52" height="85" class="key trans"/>
<text x="0" y="0" class="key trans tap">▽</text>
</g>
<g transform="translate(533, 235) rotate(-15.0)" class="key trans keypos-34">
<rect rx="6" ry="6" x="-28" y="-26" width="55" height="52" class="key trans"/>
<text x="0" y="0" class="key trans tap">▽</text>
</g>
<g transform="translate(599, 228)" class="key trans keypos-35">
<rect rx="6" ry="6" x="-28" y="-26" width="55" height="52" class="key trans"/>
<text x="0" y="0" class="key trans tap">▽</text>
</g>
<g class="combo combopos-0">
<rect rx="6" ry="6" x="655" y="137" width="28" height="26" class="combo"/>
<text x="669" y="150" class="combo tap">RET</text>
</g>
<g class="combo combopos-1">
<rect rx="6" ry="6" x="655" y="81" width="28" height="26" class="combo"/>
<text x="669" y="94" class="combo tap"><tspan style="font-size: 78%">BACKSPACE</tspan></text>
</g>
<g class="combo combopos-2">
<rect rx="6" ry="6" x="105" y="137" width="28" height="26" class="combo"/>
<text x="119" y="150" class="combo tap">⎋</text>
</g>
<g class="combo combopos-3">
<rect rx="6" ry="6" x="595" y="26" width="28" height="26" class="combo"/>
<text x="609" y="39" class="combo tap">?</text>
<text x="609" y="28" class="combo shifted">!</text>
</g>
<g class="combo combopos-4">
<rect rx="6" ry="6" x="164" y="26" width="28" height="26" class="combo"/>
<text x="178" y="39" class="combo tap">,</text>
<text x="178" y="28" class="combo shifted">;</text>
</g>
<g class="combo combopos-5">
<rect rx="6" ry="6" x="164" y="138" width="28" height="26" class="combo"/>
<text x="178" y="151" class="combo tap">&quot;</text>
</g>
<g class="combo combopos-6">
<path d="M394,199 l-344,0" class="combo"/>
<path d="M394,199 l344,0" class="combo"/>
<rect rx="6" ry="6" x="380" y="186" width="28" height="26" class="combo"/>
<text x="394" y="199" class="combo tap"><tspan style="font-size: 60%">LC(LA(DELETE))</tspan></text>
</g>
<g class="combo combopos-7">
<path d="M394,58 l-107,0" class="combo"/>
<path d="M394,58 l107,0" class="combo"/>
<rect rx="6" ry="6" x="380" y="45" width="28" height="26" class="combo"/>
<text x="394" y="58" class="combo tap">-</text>
</g>
<g class="combo combopos-8">
<path d="M394,114 l-107,0" class="combo"/>
<path d="M394,114 l107,0" class="combo"/>
<rect rx="6" ry="6" x="380" y="101" width="28" height="26" class="combo"/>
<text x="394" y="114" class="combo tap">=</text>
</g>
<g class="combo combopos-9">
<path d="M394,170 l-107,0" class="combo"/>
<path d="M394,170 l107,0" class="combo"/>
<rect rx="6" ry="6" x="380" y="157" width="28" height="26" class="combo"/>
<text x="394" y="170" class="combo tap">_</text>
</g>
<g class="combo combopos-10">
<path d="M394,106 l-166,0" class="combo"/>
<path d="M394,106 l166,0" class="combo"/>
<rect rx="6" ry="6" x="380" y="93" width="28" height="26" class="combo"/>
<text x="394" y="106" class="combo tap">⇪</text>
</g>
<g class="combo combopos-11">
<rect rx="6" ry="6" x="105" y="25" width="28" height="26" class="combo"/>
<text x="119" y="38" class="combo tap">↹</text>
</g>
<g class="combo combopos-12">
<rect rx="6" ry="6" x="105" y="81" width="28" height="26" class="combo"/>
<text x="119" y="94" class="combo tap">.</text>
<text x="119" y="83" class="combo shifted">:</text>
</g>
<g class="combo combopos-13">
<path d="M148,72 l-99,12" class="combo"/>
<path d="M148,72 l99,-12" class="combo"/>
<rect rx="6" ry="6" x="134" y="59" width="28" height="26" class="combo"/>
<text x="148" y="72" class="combo tap"><tspan style="font-size: 78%">LG(LS(S))</tspan></text>
</g>
<g class="combo combopos-14">
<path d="M148,49 l-40,-1" class="combo"/>
<path d="M148,49 l40,1" class="combo"/>
<rect rx="6" ry="6" x="134" y="36" width="28" height="26" class="combo"/>
<text x="148" y="49" class="combo tap">[</text>
</g>
<g class="combo combopos-15">
<path d="M639,49 l40,-1" class="combo"/>
<path d="M639,49 l-40,1" class="combo"/>
<rect rx="6" ry="6" x="625" y="36" width="28" height="26" class="combo"/>
<text x="639" y="49" class="combo tap">]</text>
</g>
<g class="combo combopos-16">
<path d="M148,161 l-40,-1" class="combo"/>
<path d="M148,161 l40,1" class="combo"/>
<rect rx="6" ry="6" x="134" y="148" width="28" height="26" class="combo"/>
<text x="148" y="161" class="combo tap">(</text>
</g>
<g class="combo combopos-17">
<path d="M639,161 l40,-1" class="combo"/>
<path d="M639,161 l-40,1" class="combo"/>
<rect rx="6" ry="6" x="625" y="148" width="28" height="26" class="combo"/>
<text x="639" y="161" class="combo tap">)</text>
</g>
<g class="combo combopos-18">
<rect rx="6" ry="6" x="655" y="25" width="28" height="26" class="combo"/>
<text x="669" y="38" class="combo tap">DEL</text>
</g>
</g>
</g>
</svg>
